<svg width="84" height="27" viewBox="0 0 84 27" fill="none" xmlns="http://www.w3.org/2000/svg">
<path d="M11.412 0.512011H16.02L18.936 8.97201L21.888 0.512011H26.46L22.068 12.14L25.308 20.276L32.544 0.44001H37.944L27.72 26H23.436L18.936 15.272L14.472 26H10.188L0 0.44001H5.328L12.6 20.276L15.768 12.14L11.412 0.512011Z" fill="white"/>
<path d="M45.4011 0.44001H50.4411L59.8371 26H54.7251L52.3491 19.628H43.4211L41.0811 26H35.9691L45.4011 0.44001ZM51.4491 16.136L47.9211 5.58801L44.2491 16.136H51.4491Z" fill="white"/>
<path d="M72.2762 26.18C70.6202 26.18 69.0482 25.844 67.5602 25.172C66.0962 24.5 64.8002 23.576 63.6722 22.4C62.5682 21.2 61.7042 19.808 61.0802 18.224C60.4562 16.64 60.1442 14.924 60.1442 13.076C60.1442 11.324 60.4562 9.68001 61.0802 8.14401C61.7042 6.58401 62.5802 5.21601 63.7082 4.04001C64.8362 2.86401 66.1562 1.94001 67.6682 1.26801C69.1802 0.59601 70.8242 0.26001 72.6002 0.26001C75.0002 0.26001 77.0522 0.77601 78.7562 1.80801C80.4842 2.81601 81.7802 4.16001 82.6442 5.84001L78.9362 8.57601C78.2882 7.30401 77.3762 6.33201 76.2002 5.66001C75.0482 4.98801 73.7882 4.65201 72.4202 4.65201C71.3402 4.65201 70.3562 4.88001 69.4682 5.33601C68.5802 5.79201 67.8122 6.41601 67.1642 7.20801C66.5162 8.00001 66.0122 8.91201 65.6522 9.94401C65.3162 10.976 65.1482 12.068 65.1482 13.22C65.1482 14.444 65.3282 15.572 65.6882 16.604C66.0722 17.636 66.6002 18.536 67.2722 19.304C67.9682 20.072 68.7722 20.684 69.6842 21.14C70.5962 21.572 71.6042 21.788 72.7082 21.788C74.0042 21.788 75.2402 21.452 76.4162 20.78C77.6162 20.108 78.7322 19.124 79.7642 17.828V22.724C77.6282 25.028 75.1322 26.18 72.2762 26.18ZM79.4042 16.496H74.2562V12.86H83.5082V26H79.4042V16.496Z" fill="white"/>
</svg>
